<svg xmlns="http://www.w3.org/2000/svg" class="svg-inline--fa fa-facebook-square fa-w-14 fa-2x" role="img" aria-hidden="true" viewBox="0 0 448 512" focusable="false" data-icon="facebook-square" data-prefix="fab"><path class="" fill="currentColor" d="M 400 32 H 48 A 48 48 0 0 0 0 80 v 352 a 48 48 0 0 0 48 48 h 137.25 V 327.69 h -63 V 256 h 63 v -54.64 c 0 -62.15 37 -96.48 93.67 -96.48 c 27.14 0 55.52 4.84 55.52 4.84 v 61 h -31.27 c -30.81 0 -40.42 19.12 -40.42 38.73 V 256 h 68.78 l -11 71.69 h -57.78 V 480 H 400 a 48 48 0 0 0 48 -48 V 80 a 48 48 0 0 0 -48 -48 Z"/></svg>