<svg xmlns="http://www.w3.org/2000/svg" class="svg-inline--fa fa-envelope fa-w-16 fa-2x" role="img" aria-hidden="true" viewBox="0 0 512 512" focusable="false" data-prefix="fal" data-icon="envelope"><path class="" fill="currentColor" d="M 464 64 H 48 C 21.5 64 0 85.5 0 112 v 288 c 0 26.5 21.5 48 48 48 h 416 c 26.5 0 48 -21.5 48 -48 V 112 c 0 -26.5 -21.5 -48 -48 -48 Z M 48 96 h 416 c 8.8 0 16 7.2 16 16 v 41.4 c -21.9 18.5 -53.2 44 -150.6 121.3 c -16.9 13.4 -50.2 45.7 -73.4 45.3 c -23.2 0.4 -56.6 -31.9 -73.4 -45.3 C 85.2 197.4 53.9 171.9 32 153.4 V 112 c 0 -8.8 7.2 -16 16 -16 Z m 416 320 H 48 c -8.8 0 -16 -7.2 -16 -16 V 195 c 22.8 18.7 58.8 47.6 130.7 104.7 c 20.5 16.4 56.7 52.5 93.3 52.3 c 36.4 0.3 72.3 -35.5 93.3 -52.3 c 71.9 -57.1 107.9 -86 130.7 -104.7 v 205 c 0 8.8 -7.2 16 -16 16 Z"/></svg>