<svg xmlns="http://www.w3.org/2000/svg" class="svg-inline--fa fa-vk fa-w-18 fa-2x" role="img" aria-hidden="true" viewBox="0 0 576 512" focusable="false" data-prefix="fab" data-icon="vk"><path class="" fill="currentColor" d="M 545 117.7 c 3.7 -12.5 0 -21.7 -17.8 -21.7 h -58.9 c -15 0 -21.9 7.9 -25.6 16.7 c 0 0 -30 73.1 -72.4 120.5 c -13.7 13.7 -20 18.1 -27.5 18.1 c -3.7 0 -9.4 -4.4 -9.4 -16.9 V 117.7 c 0 -15 -4.2 -21.7 -16.6 -21.7 h -92.6 c -9.4 0 -15 7 -15 13.5 c 0 14.2 21.2 17.5 23.4 57.5 v 86.8 c 0 19 -3.4 22.5 -10.9 22.5 c -20 0 -68.6 -73.4 -97.4 -157.4 c -5.8 -16.3 -11.5 -22.9 -26.6 -22.9 H 38.8 c -16.8 0 -20.2 7.9 -20.2 16.7 c 0 15.6 20 93.1 93.1 195.5 C 160.4 378.1 229 416 291.4 416 c 37.5 0 42.1 -8.4 42.1 -22.9 c 0 -66.8 -3.4 -73.1 15.4 -73.1 c 8.7 0 23.7 4.4 58.7 38.1 c 40 40 46.6 57.9 69 57.9 h 58.9 c 16.8 0 25.3 -8.4 20.4 -25 c -11.2 -34.9 -86.9 -106.7 -90.3 -111.5 c -8.7 -11.2 -6.2 -16.2 0 -26.2 c 0.1 -0.1 72 -101.3 79.4 -135.6 Z"/></svg>