<svg xmlns="http://www.w3.org/2000/svg" class="svg-inline--fa fa-youtube fa-w-18 fa-2x" role="img" aria-hidden="true" viewBox="0 0 576 512" focusable="false" data-prefix="fab" data-icon="youtube"><path class="" fill="currentColor" d="M 549.655 124.083 c -6.281 -23.65 -24.787 -42.276 -48.284 -48.597 C 458.781 64 288 64 288 64 S 117.22 64 74.629 75.486 c -23.497 6.322 -42.003 24.947 -48.284 48.597 c -11.412 42.867 -11.412 132.305 -11.412 132.305 s 0 89.438 11.412 132.305 c 6.281 23.65 24.787 41.5 48.284 47.821 C 117.22 448 288 448 288 448 s 170.78 0 213.371 -11.486 c 23.497 -6.321 42.003 -24.171 48.284 -47.821 c 11.412 -42.867 11.412 -132.305 11.412 -132.305 s 0 -89.438 -11.412 -132.305 Z m -317.51 213.508 V 175.185 l 142.739 81.205 l -142.739 81.201 Z"/></svg>